<svg width="105" height="102" viewBox="0 0 105 102" fill="none" xmlns="http://www.w3.org/2000/svg">
<g clip-path="url(#clip0)">
<path fill-rule="evenodd" clip-rule="evenodd" d="M87.7261 85.7492C78.766 93.962 66.7316 98.9892 53.4999 98.9892C25.8105 98.9892 3.36373 76.9745 3.36373 49.8175C3.36373 36.8409 8.48897 25.0384 16.8624 16.2508C7.07214 25.2249 0.952507 38.0027 0.952507 52.1825C0.952507 79.3394 23.3992 101.354 51.0887 101.354C65.547 101.354 78.576 95.3518 87.7261 85.7492Z" fill="#807971"/>
<mask id="mask0" mask-type="alpha" maskUnits="userSpaceOnUse" x="3" y="0" width="101" height="99">
<path fill-rule="evenodd" clip-rule="evenodd" d="M83.6316 89.1219C95.7803 80.1486 103.636 65.8828 103.636 49.8175C103.636 22.6606 81.1894 0.645508 53.5 0.645508C25.8105 0.645508 3.36382 22.6606 3.36382 49.8175C3.36382 76.9745 25.8105 98.9892 53.5 98.9892C60.6486 98.9892 67.4479 97.522 73.6016 94.8773L75.5129 45.633C74.7792 45.4544 74.0787 45.2133 73.4417 44.8835C73.4417 44.8835 66.0705 43.122 66.0705 33.7523C66.0705 33.7523 63.3559 12.5543 77.8216 12.5543C92.1994 12.5543 90.4366 33.7523 90.4366 33.7523C90.8853 42.8458 84.1127 44.4228 84.1127 44.4228C83.4727 44.8288 82.7427 45.1298 81.9826 45.3764L83.6316 89.1219ZM13.3217 39.2239C13.1806 39.1365 13.0766 39.0308 13.0097 38.907C12.9429 38.7831 12.8946 38.6702 12.8649 38.5682C12.8352 38.4589 12.8166 38.3861 12.8091 38.3496C12.8166 38.1893 12.9354 38.0618 13.1658 37.9671C13.3961 37.8651 13.6337 37.8141 13.8789 37.8141C14.191 37.8141 14.425 37.8979 14.581 38.0655C14.7369 38.2331 14.815 38.4553 14.815 38.7321C14.763 38.7613 14.6514 38.9908 14.4806 39.4206C14.3097 39.8432 14.1538 40.3095 14.0126 40.8195C13.8714 41.3222 13.801 41.7484 13.801 42.0981C13.801 42.3094 13.8194 42.4916 13.8566 42.6446C13.9011 42.7903 13.9718 42.8631 14.0684 42.8631C14.2689 42.8631 14.5066 42.6008 14.7814 42.0763C15.0564 41.5517 15.3164 40.9251 15.5615 40.1966C15.8141 39.468 16.0034 38.8232 16.1298 38.2622C16.152 38.1456 16.2263 38.0473 16.3527 37.9671C16.4864 37.8797 16.5978 37.836 16.6869 37.836C16.8577 37.836 16.9878 37.8761 17.077 37.9562C17.1735 38.0363 17.2218 38.1602 17.2218 38.3278L17.2107 38.448C17.2107 38.4626 17.2032 38.4917 17.1883 38.5354C17.1735 38.5791 17.1587 38.6338 17.1437 38.6993C16.7427 40.1711 16.542 41.253 16.542 41.9451V42.1637C16.542 42.3823 16.5681 42.5535 16.6201 42.6773C16.6721 42.8012 16.7464 42.8631 16.843 42.8631C17.1697 42.8631 17.5114 42.3568 17.8681 41.3441C18.2246 40.3313 18.5069 39.2968 18.715 38.2403C18.752 38.0218 18.9155 37.9125 19.2052 37.9125C19.3686 37.9125 19.547 37.9453 19.7401 38.0108C19.9332 38.0691 20.0297 38.1383 20.0297 38.2185L19.8738 38.8742C19.859 38.9762 19.8441 39.0454 19.8291 39.0818C19.584 40.1237 19.3501 40.9871 19.1272 41.6719C18.9043 42.3495 18.6035 42.936 18.2246 43.4314C17.8531 43.9196 17.3889 44.1636 16.8318 44.1636C16.5198 44.1636 16.2634 44.0252 16.063 43.7483C15.8697 43.4715 15.7732 43.1291 15.7732 42.7211C15.7732 42.2475 15.8326 41.7266 15.9515 41.1583H15.918C15.7175 41.7776 15.4797 42.3167 15.205 42.7757C14.93 43.2274 14.6441 43.5735 14.3469 43.8139C14.0572 44.0471 13.7823 44.1636 13.5223 44.1636C13.1954 44.1636 12.9467 44.0033 12.7758 43.6828C12.605 43.3622 12.5195 42.9287 12.5195 42.3823C12.5195 41.9451 12.5492 41.559 12.6086 41.2238C12.668 40.8887 12.7387 40.6118 12.8203 40.3933C12.9095 40.1674 13.0246 39.8906 13.1658 39.5627L13.3217 39.2239ZM21.7507 43.1363C21.9439 43.1363 22.1036 43.0343 22.2299 42.8303C22.3636 42.6263 22.4602 42.3896 22.5196 42.12C22.5864 41.8431 22.6199 41.6136 22.6199 41.4315C22.6199 41.0599 22.5122 40.7576 22.2967 40.5244C22.0887 40.284 21.8064 40.0472 21.4499 39.8141C21.2716 39.7048 21.1416 39.6173 21.0599 39.5518C20.9856 39.4789 20.9485 39.4061 20.9485 39.3332C20.9485 39.1438 21.0302 38.9835 21.1936 38.8523C21.3645 38.7139 21.5836 38.5864 21.851 38.4698C22.1407 38.3533 22.5679 38.2185 23.1324 38.0655C23.697 37.9125 24.1799 37.836 24.581 37.836C24.8559 37.836 25.075 37.8797 25.2384 37.9671C25.4019 38.0546 25.4836 38.1711 25.4836 38.3168C25.4836 38.4261 25.4502 38.5063 25.3833 38.5573C25.3164 38.6083 25.2125 38.652 25.0713 38.6884L24.8039 38.754C24.373 38.8487 23.983 38.9471 23.6339 39.0491C23.2922 39.1511 22.969 39.2822 22.6644 39.4425C23.0953 39.7412 23.4073 40.0654 23.6005 40.4151C23.7936 40.7648 23.8902 41.1109 23.8902 41.4533C23.8902 41.7958 23.7936 42.1783 23.6005 42.6008C23.4147 43.0234 23.1473 43.3841 22.7982 43.6828C22.4564 43.9815 22.059 44.1308 21.6059 44.1308C21.2939 44.1308 21.019 44.0325 20.7813 43.8358C20.551 43.6391 20.4359 43.3513 20.4359 42.9724C20.4359 42.6956 20.5102 42.477 20.6587 42.3167C20.8147 42.1491 21.0005 42.0653 21.2159 42.0653C21.3719 42.0653 21.5019 42.1018 21.6059 42.1746C21.7173 42.2475 21.773 42.3313 21.773 42.426C21.7582 42.4333 21.7322 42.4551 21.695 42.4916C21.6579 42.528 21.6207 42.5753 21.5836 42.6336C21.5539 42.6919 21.539 42.7575 21.539 42.8303C21.539 42.9251 21.5613 43.0016 21.6059 43.0598C21.6505 43.1108 21.6987 43.1363 21.7507 43.1363ZM26.7237 43.1363C26.9168 43.1363 27.0766 43.0343 27.2028 42.8303C27.3366 42.6263 27.4331 42.3896 27.4926 42.12C27.5594 41.8431 27.5928 41.6136 27.5928 41.4315C27.5928 41.0599 27.4851 40.7576 27.2697 40.5244C27.0617 40.284 26.7794 40.0472 26.4228 39.8141C26.2446 39.7048 26.1146 39.6173 26.0328 39.5518C25.9586 39.4789 25.9214 39.4061 25.9214 39.3332C25.9214 39.1438 26.0031 38.9835 26.1666 38.8523C26.3374 38.7139 26.5566 38.5864 26.824 38.4698C27.1137 38.3533 27.5408 38.2185 28.1054 38.0655C28.67 37.9125 29.1528 37.836 29.554 37.836C29.8288 37.836 30.048 37.8797 30.2114 37.9671C30.3748 38.0546 30.4566 38.1711 30.4566 38.3168C30.4566 38.4261 30.4231 38.5063 30.3563 38.5573C30.2894 38.6083 30.1854 38.652 30.0443 38.6884L29.7768 38.754C29.346 38.8487 28.956 38.9471 28.6068 39.0491C28.2651 39.1511 27.942 39.2822 27.6374 39.4425C28.0683 39.7412 28.3803 40.0654 28.5734 40.4151C28.7666 40.7648 28.8631 41.1109 28.8631 41.4533C28.8631 41.7958 28.7666 42.1783 28.5734 42.6008C28.3877 43.0234 28.1203 43.3841 27.7711 43.6828C27.4294 43.9815 27.032 44.1308 26.5788 44.1308C26.2668 44.1308 25.992 44.0325 25.7543 43.8358C25.524 43.6391 25.4088 43.3513 25.4088 42.9724C25.4088 42.6956 25.4831 42.477 25.6317 42.3167C25.7877 42.1491 25.9734 42.0653 26.1888 42.0653C26.3448 42.0653 26.4748 42.1018 26.5788 42.1746C26.6903 42.2475 26.746 42.3313 26.746 42.426C26.7311 42.4333 26.7051 42.4551 26.668 42.4916C26.6308 42.528 26.5937 42.5753 26.5566 42.6336C26.5268 42.6919 26.512 42.7575 26.512 42.8303C26.512 42.9251 26.5343 43.0016 26.5788 43.0598C26.6234 43.1108 26.6717 43.1363 26.7237 43.1363ZM33.9029 41.0927C33.6503 41.4133 33.3643 41.8868 33.0449 42.5134C32.8369 42.9141 32.6586 43.2238 32.51 43.4423C32.3689 43.6609 32.2129 43.8248 32.042 43.9341C31.9009 44.0216 31.6891 44.0653 31.4069 44.0653C30.9686 44.0653 30.6751 43.9341 30.5266 43.6718C30.378 43.4023 30.3037 43.0125 30.3037 42.5025C30.3037 42.0435 30.4003 41.457 30.5934 40.743C30.794 40.029 31.1951 39.366 31.7969 38.754C32.3986 38.142 33.2491 37.836 34.3486 37.836C34.7794 37.836 35.1917 37.9234 35.5854 38.0983C35.9866 38.2731 36.3097 38.5318 36.5549 38.8742C36.8 39.2093 36.9226 39.6064 36.9226 40.0654C36.9226 40.0873 36.8966 40.2439 36.8446 40.5353L36.8111 40.7539L36.0089 43.8467C35.9123 44.0288 35.8046 44.1636 35.6857 44.2511C35.5669 44.3458 35.3663 44.3931 35.084 44.3931C34.9577 44.3931 34.8574 44.3603 34.7831 44.2948C34.7163 44.2292 34.6829 44.1491 34.6829 44.0543C34.6829 44.0106 34.6903 43.9451 34.7051 43.8576L34.7831 43.5298C34.8426 43.2456 34.9689 42.7757 35.162 42.12C35.1917 42.0034 35.2697 41.712 35.396 41.2457C35.5297 40.7721 35.6226 40.3969 35.6746 40.1201C35.6894 40.0181 35.6969 39.9525 35.6969 39.9233C35.6969 39.7121 35.6263 39.519 35.4851 39.3441C35.3514 39.1693 35.1731 39.0308 34.9503 38.9288C34.7349 38.8268 34.5046 38.7758 34.2594 38.7758C33.576 38.7758 33.03 39.0163 32.6214 39.4971C32.2129 39.9707 31.9269 40.5098 31.7634 41.1146C31.6074 41.7193 31.5294 42.2402 31.5294 42.6773C31.5294 42.7283 31.5406 42.7757 31.5629 42.8194C31.5851 42.8558 31.6149 42.8741 31.652 42.8741C31.7189 42.8741 31.7746 42.8267 31.8191 42.732C32.0791 42.1783 32.3057 41.7156 32.4989 41.3441C32.6994 40.9725 32.9223 40.6483 33.1674 40.3714C33.42 40.0873 33.6726 39.9452 33.9251 39.9452C34.1331 39.9452 34.3337 40.0253 34.5269 40.1856C34.72 40.3386 34.8203 40.5026 34.8277 40.6774C34.8129 40.7284 34.7609 40.7758 34.6717 40.8195C34.59 40.8559 34.4637 40.8996 34.2929 40.9506C34.0997 41.0089 33.9697 41.0563 33.9029 41.0927ZM29.6506 61.4022C29.8859 61.2443 30.0778 61.0197 30.2264 60.7282C30.3254 60.1818 30.4987 59.4471 30.7464 58.5243C31.0187 57.48 31.2292 56.5936 31.3778 55.865C31.5387 55.1243 31.6192 54.4382 31.6192 53.8068C31.6192 53.1268 31.4397 52.5561 31.0806 52.0947C30.734 51.6211 30.2697 51.2689 29.6878 51.0382C29.1183 50.7954 28.5054 50.674 27.8492 50.674C26.8587 50.674 25.924 50.8076 25.0449 51.0747C24.1659 51.3418 23.4601 51.7061 22.9278 52.1675C22.4078 52.6168 22.1478 53.1086 22.1478 53.6429C22.1478 53.8493 22.2159 54.0133 22.3521 54.1347C22.5006 54.244 22.7297 54.3654 23.0392 54.499C23.3364 54.6204 23.5469 54.7236 23.6706 54.8086C23.2621 55.8771 22.9401 56.9094 22.7049 57.905C22.4697 58.9007 22.3521 59.7629 22.3521 60.4915C22.3521 60.7221 22.4387 60.9043 22.6121 61.0379C22.7978 61.1836 23.064 61.2565 23.4107 61.2565C23.7201 61.2565 23.9801 61.1836 24.1907 61.0379C24.203 60.6129 24.2959 60.0725 24.4692 59.4168C24.6426 58.7611 24.8901 57.8929 25.2121 56.8122L25.6578 55.2457C25.6949 55.1121 25.7135 54.9907 25.7135 54.8815C25.7135 54.5172 25.5464 54.2196 25.2121 53.989C24.8778 53.7461 24.494 53.6065 24.0606 53.57C24.3949 53.1572 24.9087 52.8354 25.6021 52.6047C26.3078 52.3618 27.0321 52.2404 27.7749 52.2404C28.9635 52.2404 29.5578 52.6836 29.5578 53.57C29.5578 54.0921 29.4897 54.6568 29.3535 55.264C29.2297 55.8589 29.0316 56.6483 28.7592 57.6318C28.6973 57.8625 28.6292 58.1236 28.5549 58.415C28.4806 58.7065 28.4001 59.0161 28.3135 59.344L27.9792 60.7465C27.9544 60.8922 27.9421 61.0015 27.9421 61.0743C27.9421 61.4507 28.1401 61.639 28.5364 61.639C29.044 61.639 29.4154 61.56 29.6506 61.4022ZM32.5267 48.215C32.502 48.0936 32.4524 48.0147 32.3781 47.9782C32.2172 47.9175 32.0253 47.8143 31.8024 47.6686C31.5796 47.5229 31.3692 47.3407 31.171 47.1222C30.6386 46.5272 30.0939 46.1022 29.5367 45.8472C28.9796 45.5801 28.3049 45.4465 27.5124 45.4465C27.0172 45.4465 26.4539 45.5496 25.8224 45.7561C25.1786 45.9504 24.6339 46.2297 24.1881 46.594C23.7301 46.9582 23.501 47.3711 23.501 47.8325C23.501 48.2576 23.7239 48.6218 24.1696 48.9254C24.6029 49.2289 25.1663 49.4597 25.8596 49.6175C26.5406 49.7754 27.2401 49.8543 27.9581 49.8543C28.1934 49.8543 28.472 49.8118 28.7939 49.7268C29.1034 49.6418 29.3758 49.5204 29.611 49.3625C29.8339 49.2047 29.9453 49.0165 29.9453 48.7979C29.9453 48.6522 29.8092 48.5793 29.5367 48.5793C29.2892 48.5793 29.0849 48.5854 28.9239 48.5975L28.0324 48.6157C27.7724 48.6157 27.4506 48.5854 27.0667 48.5247C26.6706 48.4518 26.3239 48.3486 26.0267 48.215C25.7296 48.0693 25.581 47.8993 25.581 47.705C25.581 47.45 25.7915 47.2558 26.2124 47.1222C26.621 46.9765 27.0234 46.9036 27.4196 46.9036C27.9149 46.9036 28.3606 47.019 28.7567 47.2497C29.1406 47.4804 29.5801 47.8143 30.0753 48.2515C30.4344 48.5672 30.7192 48.7979 30.9296 48.9436C31.1401 49.0772 31.3506 49.144 31.561 49.144C31.821 49.144 32.0563 49.0954 32.2667 48.9982C32.4772 48.9011 32.5824 48.7432 32.5824 48.5247C32.5824 48.4275 32.5639 48.3243 32.5267 48.215ZM36.241 60.0179C37.3677 59.4229 38.1539 59.0525 38.5996 58.9068C38.5872 59.0282 38.581 59.1861 38.581 59.3804C38.581 59.9147 38.7481 60.3457 39.0824 60.6736C39.4167 61.0015 39.7944 61.1654 40.2153 61.1654C40.7106 61.1654 41.1192 61.0379 41.441 60.7829C41.7753 60.5279 42.0229 60.2122 42.1839 59.8358C42.3449 59.4594 42.4253 59.0951 42.4253 58.7429C42.4253 58.3907 42.351 58.0872 42.2024 57.8322C42.0663 57.5651 41.8558 57.3889 41.571 57.304C41.6081 57.0004 41.732 56.3871 41.9424 55.4643C42.1529 54.5415 42.3696 53.6854 42.5924 52.8961C42.8277 52.0947 43.001 51.6393 43.1124 51.53C43.0629 50.9957 42.7163 50.7286 42.0724 50.7286C41.701 50.7286 41.3606 51.0382 41.051 51.6575C40.7415 52.2768 40.4692 53.0175 40.2339 53.8797C39.9986 54.7296 39.7263 55.8286 39.4167 57.1765C38.6863 57.3222 37.9186 57.5529 37.1139 57.8686C36.3215 58.1843 35.6653 58.4879 35.1453 58.7793C35.5539 58.0143 35.9006 57.0733 36.1853 55.9561C36.4701 54.8389 36.6124 53.9404 36.6124 53.2604C36.6124 52.459 36.4886 51.87 36.241 51.4936C36.0058 51.1172 35.5972 50.929 35.0153 50.929C34.6192 50.929 34.2477 51.0139 33.901 51.184C33.5667 51.3418 33.3934 51.5544 33.381 51.8215C33.4677 52.1008 33.5977 52.3861 33.771 52.6775C33.9444 52.9568 34.1672 53.1814 34.4396 53.3515C34.3529 54.5172 34.1734 55.519 33.901 56.3568C33.641 57.1947 33.3129 58.0264 32.9167 58.8522C32.892 58.9129 32.8424 59.0161 32.7681 59.1618C32.7063 59.3075 32.6381 59.4836 32.5639 59.69C32.4896 59.8843 32.4524 60.0422 32.4524 60.1636C32.4524 60.8557 32.7929 61.2018 33.4739 61.2018C33.7339 61.2018 34.0867 61.0986 34.5324 60.8922C34.9781 60.6857 35.5477 60.3943 36.241 60.0179ZM49.7018 60.6372C50.0485 60.3336 50.259 59.9632 50.3333 59.5261C50.5561 58.1904 50.9152 56.9276 51.4104 55.7375C51.9181 54.5354 52.4318 53.5518 52.9518 52.7868C53.4718 52.0218 53.8495 51.6029 54.0847 51.53C54.1838 51.4936 54.2333 51.4451 54.2333 51.3843C54.2333 51.2629 54.0413 51.1232 53.6576 50.9654C53.2861 50.8076 52.9642 50.7286 52.6918 50.7286C52.2461 50.8743 51.7695 51.2689 51.2618 51.9125C50.7542 52.5439 50.2838 53.3454 49.8504 54.3168C49.4295 55.2761 49.1138 56.3022 48.9033 57.395L48.9218 56.7575C48.9218 55.2032 48.6928 53.8432 48.2347 52.6775C47.789 51.5118 46.9471 50.929 45.709 50.929C45.3376 50.929 45.0156 51.0139 44.7433 51.184C44.4833 51.3418 44.3533 51.5544 44.3533 51.8215C44.3533 52.0644 44.4771 52.3132 44.7247 52.5682C44.9847 52.8232 45.3066 52.9568 45.6904 52.969C45.8638 52.9568 46.0742 53.1996 46.3218 53.6975C46.5695 54.1954 46.7799 54.8268 46.9533 55.5918C47.1266 56.3568 47.2133 57.1279 47.2133 57.905C47.2133 58.0751 47.1638 58.5364 47.0647 59.2893C46.9781 59.8357 46.9347 60.1879 46.9347 60.3457C46.9347 60.4915 47.1081 60.6554 47.4547 60.8375C47.8138 61.0076 48.0924 61.0925 48.2904 61.0925C48.8971 61.0925 49.3676 60.9407 49.7018 60.6372ZM49.1321 46.5757C49.2683 46.5757 49.3364 46.6425 49.3364 46.7761C49.3364 46.8854 49.293 47.0311 49.2064 47.2132L49.0392 47.5411C48.903 47.8082 48.804 48.0268 48.7421 48.1968C48.6678 48.3546 48.6306 48.5126 48.6306 48.6704C48.6306 48.8646 48.7297 49.065 48.9278 49.2715C49.1135 49.4779 49.3054 49.5811 49.5035 49.5811C49.5901 49.5811 49.6954 49.5204 49.8192 49.399C50.104 49.1319 50.6549 48.7979 51.4721 48.3972C52.2892 47.9843 53.1126 47.6261 53.9421 47.3225C54.7716 47.019 55.3287 46.8672 55.6135 46.8672C55.7249 46.8672 55.8301 46.8186 55.9292 46.7215C56.0406 46.6243 56.0964 46.5272 56.0964 46.43C56.0964 46.1386 55.9849 45.9321 55.7621 45.8107C55.5392 45.6771 55.2606 45.6104 54.9264 45.6104C54.493 45.6104 53.8801 45.7804 53.0878 46.1204C52.2954 46.4604 51.5526 46.8246 50.8592 47.2132C50.9459 47.0432 51.014 46.8368 51.0635 46.594C51.113 46.339 51.1378 46.1507 51.1378 46.0293C51.1378 45.6165 51.0078 45.3433 50.7478 45.2097C50.4754 45.064 50.104 44.9911 49.6335 44.9911C49.3735 44.9911 49.0887 45.0518 48.7792 45.1732C48.4573 45.2946 48.1849 45.4465 47.9621 45.6286C47.7392 45.8107 47.6278 45.9808 47.6278 46.1386C47.6278 46.3207 47.6897 46.5211 47.8135 46.7397C47.9249 46.9461 48.0426 47.0493 48.1664 47.0493C48.2159 47.0493 48.3273 46.9886 48.5006 46.8672C48.5254 46.8551 48.6121 46.8064 48.7606 46.7215C48.8969 46.6243 49.0206 46.5757 49.1321 46.5757ZM61.0921 57.65C61.5501 55.8771 61.8412 54.5961 61.9649 53.8068C61.9773 53.7583 61.9835 53.6732 61.9835 53.5518C61.9835 53.139 61.8659 52.714 61.6306 52.2768C61.3954 51.8276 61.0178 51.4511 60.4978 51.1475C59.9778 50.8318 59.3154 50.674 58.5106 50.674C57.1983 50.674 56.183 50.9472 55.4649 51.4936C54.7592 52.0279 54.4064 52.7261 54.4064 53.5882C54.4064 53.8676 54.5612 54.0921 54.8706 54.2622C55.1926 54.4322 55.5949 54.5415 56.0778 54.59C56.1149 53.8858 56.313 53.3211 56.6721 52.8961C57.0435 52.459 57.6069 52.2404 58.3621 52.2404C58.7212 52.2404 59.0616 52.3497 59.3835 52.5682C59.7178 52.7747 59.8849 53.0479 59.8849 53.3879C59.8849 53.4608 59.8787 53.5215 59.8664 53.57C59.7426 54.1408 59.4887 55.185 59.1049 56.7029C59.0306 57.0064 58.9378 57.3647 58.8264 57.7775C58.7273 58.1782 58.6159 58.6336 58.4921 59.1436L58.1578 60.5461C58.133 60.6918 58.1206 60.8011 58.1206 60.874C58.1206 61.2504 58.3187 61.4386 58.7149 61.4386C59.2226 61.4386 59.594 61.3596 59.8292 61.2018C60.0644 61.044 60.2564 60.8193 60.4049 60.5279C60.4792 60.0786 60.5969 59.5322 60.7578 58.8886C60.9312 58.245 61.0426 57.8322 61.0921 57.65ZM70.8676 57.0125C71.2267 55.8589 71.4062 54.8147 71.4062 53.8797C71.4062 52.9568 71.0967 52.1918 70.4776 51.5847C69.8585 50.9775 68.9485 50.674 67.7476 50.674C66.881 50.674 66.1071 50.7954 65.4262 51.0382C64.7576 51.2811 64.2376 51.6211 63.8662 52.0582C63.5071 52.4833 63.3276 52.969 63.3276 53.5154C63.3276 53.8189 63.4762 54.0861 63.7733 54.3168C64.0705 54.5354 64.4605 54.6447 64.9433 54.6447C64.9928 53.904 65.2467 53.3211 65.7048 52.8961C66.1753 52.459 66.7633 52.2404 67.469 52.2404C68.249 52.2404 68.769 52.4043 69.029 52.7322C69.289 53.0479 69.419 53.4425 69.419 53.9161C69.419 54.5475 69.2767 55.3307 68.9919 56.2658C68.7071 57.1886 68.3605 57.9961 67.9519 58.6883C67.5557 59.3683 67.1905 59.7082 66.8562 59.7082C66.5962 59.7082 66.3795 59.6293 66.2062 59.4715C66.0328 59.3014 65.94 58.9615 65.9276 58.4515C65.5438 58.4636 65.2157 58.5911 64.9433 58.834C64.6833 59.0646 64.5533 59.3622 64.5533 59.7265C64.5533 60.1879 64.739 60.5582 65.1105 60.8375C65.4819 61.1046 65.9833 61.2382 66.6148 61.2382C67.6548 61.2382 68.5338 60.8254 69.2519 59.9997C69.9824 59.1618 70.521 58.1661 70.8676 57.0125Z" fill="#B5ADA3"/>
</mask>
<g mask="url(#mask0)">
<path d="M53.5 98.9895C81.1894 98.9895 103.636 76.9745 103.636 49.8175C103.636 22.6606 81.1894 0.645508 53.5 0.645508C25.8105 0.645508 3.36382 22.6606 3.36382 49.8175C3.36382 76.9745 25.8105 98.9895 53.5 98.9895Z" fill="#B5ADA3"/>
<g filter="url(#filter0_i)">
<path d="M53.4999 37.7977C68.5389 37.7977 80.7304 31.1605 80.7304 22.973C80.7304 14.7856 68.5389 8.14835 53.4999 8.14835C38.4609 8.14835 26.2693 14.7856 26.2693 22.973C26.2693 31.1605 38.4609 37.7977 53.4999 37.7977Z" fill="#C4C4C4"/>
</g>
<path d="M53.5 37.7982C68.539 37.7982 80.7305 31.161 80.7305 22.9735C80.7305 14.786 68.539 8.1488 53.5 8.1488C38.461 8.1488 26.2694 14.786 26.2694 22.9735C26.2694 31.161 38.461 37.7982 53.5 37.7982Z" fill="#A15035" fill-opacity="0.6"/>
<g filter="url(#filter1_i)">
<path d="M53.4999 91.4866C68.5389 91.4866 80.7304 84.8494 80.7304 76.6619C80.7304 68.4745 68.5389 61.8372 53.4999 61.8372C38.4609 61.8372 26.2693 68.4745 26.2693 76.6619C26.2693 84.8494 38.4609 91.4866 53.4999 91.4866Z" fill="#C4C4C4"/>
</g>
<g filter="url(#filter2_i)">
<path d="M22.5418 67.0911C30.9652 67.0911 37.7938 59.3575 37.7938 49.8175C37.7938 40.2776 30.9652 32.5439 22.5418 32.5439C14.1184 32.5439 7.28981 40.2776 7.28981 49.8175C7.28981 59.3575 14.1184 67.0911 22.5418 67.0911Z" fill="#C4C4C4"/>
</g>
<path d="M22.5417 67.0911C30.9651 67.0911 37.7937 59.3575 37.7937 49.8175C37.7937 40.2776 30.9651 32.5439 22.5417 32.5439C14.1183 32.5439 7.28972 40.2776 7.28972 49.8175C7.28972 59.3575 14.1183 67.0911 22.5417 67.0911Z" fill="#495A82" fill-opacity="0.49"/>
<g filter="url(#filter3_i)">
<path d="M84.4582 67.0911C92.8816 67.0911 99.7102 59.3575 99.7102 49.8175C99.7102 40.2776 92.8816 32.5439 84.4582 32.5439C76.0348 32.5439 69.2062 40.2776 69.2062 49.8175C69.2062 59.3575 76.0348 67.0911 84.4582 67.0911Z" fill="#C4C4C4"/>
</g>
<path d="M84.4065 67.0911C92.8299 67.0911 99.6584 59.3575 99.6584 49.8175C99.6584 40.2776 92.8299 32.5439 84.4065 32.5439C75.983 32.5439 69.1545 40.2776 69.1545 49.8175C69.1545 59.3575 75.983 67.0911 84.4065 67.0911Z" fill="#BC8743" fill-opacity="0.6"/>
<g filter="url(#filter4_i)">
<path d="M53.5 57.2744C59.0557 57.2744 63.5596 53.9359 63.5596 49.8177C63.5596 45.6995 59.0557 42.361 53.5 42.361C47.9442 42.361 43.4404 45.6995 43.4404 49.8177C43.4404 53.9359 47.9442 57.2744 53.5 57.2744Z" fill="#C4C4C4"/>
</g>
<path d="M12.5011 39.8929C12.3599 39.8055 12.2559 39.6999 12.1891 39.576C12.1222 39.4521 12.0739 39.3392 12.0442 39.2372C12.0145 39.1279 11.9959 39.0551 11.9885 39.0186C11.9959 38.8584 12.1148 38.7309 12.3451 38.6361C12.5753 38.5341 12.8131 38.4831 13.0582 38.4831C13.3702 38.4831 13.6042 38.5669 13.7602 38.7345C13.9162 38.9021 13.9942 39.1243 13.9942 39.4011C13.9422 39.4303 13.8308 39.6598 13.6599 40.0896C13.4891 40.5122 13.3331 40.9785 13.1919 41.4885C13.0508 41.9912 12.9802 42.4174 12.9802 42.7671C12.9802 42.9784 12.9988 43.1606 13.0359 43.3136C13.0805 43.4593 13.1511 43.5321 13.2476 43.5321C13.4482 43.5321 13.6859 43.2699 13.9608 42.7453C14.2356 42.2207 14.4956 41.5941 14.7408 40.8656C14.9933 40.137 15.1828 39.4922 15.3091 38.9312C15.3313 38.8146 15.4056 38.7163 15.5319 38.6361C15.6656 38.5487 15.7771 38.505 15.8662 38.505C16.0371 38.505 16.1671 38.5451 16.2562 38.6252C16.3528 38.7054 16.401 38.8292 16.401 38.9968L16.3899 39.117C16.3899 39.1316 16.3825 39.1607 16.3676 39.2044C16.3528 39.2481 16.3379 39.3028 16.323 39.3684C15.9219 40.8401 15.7213 41.922 15.7213 42.6141V42.8327C15.7213 43.0513 15.7473 43.2225 15.7993 43.3464C15.8513 43.4702 15.9256 43.5321 16.0222 43.5321C16.3491 43.5321 16.6908 43.0258 17.0473 42.0131C17.4039 41.0004 17.6862 39.9658 17.8942 38.9094C17.9313 38.6908 18.0948 38.5815 18.3845 38.5815C18.5479 38.5815 18.7262 38.6143 18.9193 38.6799C19.1125 38.7381 19.209 38.8074 19.209 38.8875L19.0531 39.5432C19.0382 39.6452 19.0233 39.7144 19.0085 39.7509C18.7633 40.7927 18.5293 41.6561 18.3065 42.3409C18.0836 43.0185 17.7828 43.605 17.4039 44.1004C17.0325 44.5886 16.5682 44.8326 16.0111 44.8326C15.6991 44.8326 15.4428 44.6942 15.2422 44.4173C15.0491 44.1405 14.9525 43.7981 14.9525 43.3901C14.9525 42.9165 15.0119 42.3956 15.1308 41.8273H15.0973C14.8968 42.4466 14.6591 42.9857 14.3842 43.4447C14.1093 43.8964 13.8233 44.2425 13.5262 44.4829C13.2365 44.7161 12.9616 44.8326 12.7016 44.8326C12.3748 44.8326 12.1259 44.6723 11.9551 44.3518C11.7842 44.0312 11.6988 43.5977 11.6988 43.0513C11.6988 42.6141 11.7285 42.228 11.7879 41.8929C11.8473 41.5577 11.9179 41.2809 11.9996 41.0623C12.0888 40.8364 12.2039 40.5596 12.3451 40.2317L12.5011 39.8929ZM20.9301 43.8053C21.1232 43.8053 21.2829 43.7033 21.4092 43.4993C21.5429 43.2953 21.6395 43.0586 21.6989 42.789C21.7658 42.5121 21.7992 42.2826 21.7992 42.1005C21.7992 41.7289 21.6915 41.4266 21.4761 41.1934C21.2681 40.953 20.9858 40.7162 20.6292 40.4831C20.4509 40.3738 20.3209 40.2864 20.2392 40.2208C20.1649 40.1479 20.1278 40.0751 20.1278 40.0022C20.1278 39.8128 20.2095 39.6525 20.3729 39.5214C20.5438 39.3829 20.7629 39.2554 21.0303 39.1389C21.3201 39.0223 21.7472 38.8875 22.3118 38.7345C22.8763 38.5815 23.3592 38.505 23.7604 38.505C24.0352 38.505 24.2543 38.5487 24.4178 38.6361C24.5812 38.7236 24.6629 38.8401 24.6629 38.9859C24.6629 39.0951 24.6295 39.1753 24.5626 39.2263C24.4958 39.2773 24.3918 39.321 24.2506 39.3574L23.9832 39.423C23.5524 39.5177 23.1623 39.6161 22.8132 39.7181C22.4715 39.8201 22.1483 39.9512 21.8438 40.1115C22.2746 40.4102 22.5866 40.7344 22.7798 41.0841C22.9729 41.4339 23.0695 41.7799 23.0695 42.1223C23.0695 42.4648 22.9729 42.8473 22.7798 43.2699C22.5941 43.6924 22.3266 44.0531 21.9775 44.3518C21.6358 44.6505 21.2383 44.7998 20.7852 44.7998C20.4732 44.7998 20.1983 44.7015 19.9606 44.5048C19.7303 44.3081 19.6152 44.0203 19.6152 43.6414C19.6152 43.3646 19.6895 43.146 19.8381 42.9857C19.9941 42.8181 20.1798 42.7343 20.3952 42.7343C20.5512 42.7343 20.6812 42.7708 20.7852 42.8436C20.8966 42.9165 20.9524 43.0003 20.9524 43.095C20.9375 43.1023 20.9115 43.1241 20.8743 43.1606C20.8372 43.197 20.8001 43.2443 20.7629 43.3026C20.7332 43.3609 20.7183 43.4265 20.7183 43.4993C20.7183 43.5941 20.7406 43.6706 20.7852 43.7288C20.8298 43.7798 20.8781 43.8053 20.9301 43.8053ZM25.9029 43.8053C26.0961 43.8053 26.2558 43.7033 26.3821 43.4993C26.5158 43.2953 26.6124 43.0586 26.6718 42.789C26.7386 42.5121 26.7721 42.2826 26.7721 42.1005C26.7721 41.7289 26.6644 41.4266 26.4489 41.1934C26.2409 40.953 25.9586 40.7162 25.6021 40.4831C25.4238 40.3738 25.2938 40.2864 25.2121 40.2208C25.1378 40.1479 25.1006 40.0751 25.1006 40.0022C25.1006 39.8128 25.1824 39.6525 25.3458 39.5214C25.5166 39.3829 25.7358 39.2554 26.0032 39.1389C26.2929 39.0223 26.7201 38.8875 27.2846 38.7345C27.8492 38.5815 28.3321 38.505 28.7332 38.505C29.0081 38.505 29.2272 38.5487 29.3906 38.6361C29.5541 38.7236 29.6358 38.8401 29.6358 38.9859C29.6358 39.0951 29.6024 39.1753 29.5355 39.2263C29.4686 39.2773 29.3646 39.321 29.2235 39.3574L28.9561 39.423C28.5252 39.5177 28.1352 39.6161 27.7861 39.7181C27.4444 39.8201 27.1212 39.9512 26.8166 40.1115C27.2475 40.4102 27.5595 40.7344 27.7526 41.0841C27.9458 41.4339 28.0424 41.7799 28.0424 42.1223C28.0424 42.4648 27.9458 42.8473 27.7526 43.2699C27.5669 43.6924 27.2995 44.0531 26.9504 44.3518C26.6087 44.6505 26.2112 44.7998 25.7581 44.7998C25.4461 44.7998 25.1712 44.7015 24.9335 44.5048C24.7032 44.3081 24.5881 44.0203 24.5881 43.6414C24.5881 43.3646 24.6624 43.146 24.8109 42.9857C24.9669 42.8181 25.1526 42.7343 25.3681 42.7343C25.5241 42.7343 25.6541 42.7708 25.7581 42.8436C25.8695 42.9165 25.9252 43.0003 25.9252 43.095C25.9104 43.1023 25.8844 43.1241 25.8472 43.1606C25.8101 43.197 25.7729 43.2443 25.7358 43.3026C25.7061 43.3609 25.6912 43.4265 25.6912 43.4993C25.6912 43.5941 25.7135 43.6706 25.7581 43.7288C25.8026 43.7798 25.8509 43.8053 25.9029 43.8053ZM33.0822 41.7617C32.8296 42.0823 32.5436 42.5559 32.2242 43.1824C32.0162 43.5831 31.8379 43.8928 31.6893 44.1113C31.5482 44.3299 31.3922 44.4939 31.2213 44.6031C31.0802 44.6906 30.8685 44.7343 30.5862 44.7343C30.1479 44.7343 29.8545 44.6031 29.7059 44.3408C29.5573 44.0713 29.483 43.6815 29.483 43.1715C29.483 42.7125 29.5796 42.126 29.7728 41.412C29.9733 40.698 30.3745 40.035 30.9762 39.423C31.5779 38.811 32.4285 38.505 33.5279 38.505C33.9588 38.505 34.371 38.5924 34.7648 38.7673C35.1659 38.9421 35.489 39.2008 35.7342 39.5432C35.9793 39.8784 36.1019 40.2754 36.1019 40.7344C36.1019 40.7563 36.0759 40.9129 36.0239 41.2044L35.9905 41.4229L35.1882 44.5157C35.0916 44.6978 34.9839 44.8326 34.865 44.9201C34.7462 45.0148 34.5456 45.0621 34.2633 45.0621C34.137 45.0621 34.0368 45.0293 33.9625 44.9638C33.8956 44.8982 33.8622 44.8181 33.8622 44.7234C33.8622 44.6796 33.8696 44.6141 33.8845 44.5266L33.9625 44.1988C34.0219 43.9146 34.1482 43.4447 34.3413 42.789C34.371 42.6724 34.449 42.381 34.5753 41.9147C34.709 41.4411 34.8019 41.0659 34.8539 40.7891C34.8688 40.6871 34.8762 40.6215 34.8762 40.5924C34.8762 40.3811 34.8056 40.188 34.6645 40.0131C34.5308 39.8383 34.3525 39.6999 34.1296 39.5979C33.9142 39.4959 33.6839 39.4449 33.4388 39.4449C32.7553 39.4449 32.2093 39.6853 31.8008 40.1661C31.3922 40.6397 31.1062 41.1789 30.9428 41.7836C30.7868 42.3883 30.7088 42.9092 30.7088 43.3464C30.7088 43.3974 30.7199 43.4447 30.7422 43.4884C30.7645 43.5248 30.7942 43.5431 30.8313 43.5431C30.8982 43.5431 30.9539 43.4957 30.9985 43.401C31.2585 42.8473 31.485 42.3846 31.6782 42.0131C31.8788 41.6415 32.1016 41.3173 32.3468 41.0404C32.5993 40.7563 32.8519 40.6142 33.1045 40.6142C33.3125 40.6142 33.513 40.6944 33.7062 40.8546C33.8993 41.0076 33.9996 41.1716 34.007 41.3464C33.9922 41.3974 33.9402 41.4448 33.851 41.4885C33.7693 41.5249 33.643 41.5686 33.4722 41.6196C33.279 41.6779 33.149 41.7253 33.0822 41.7617Z" fill="#745D57"/>
<path d="M28.4224 62.2093C28.2739 62.5008 28.0819 62.7254 27.8467 62.8833C27.6114 63.0411 27.24 63.1201 26.7324 63.1201C26.3362 63.1201 26.1381 62.9318 26.1381 62.5554C26.1381 62.4826 26.1505 62.3733 26.1753 62.2276L26.5096 60.8251C26.5962 60.4972 26.6767 60.1876 26.751 59.8961C26.8253 59.6047 26.8934 59.3436 26.9553 59.1129C27.2276 58.1293 27.4257 57.34 27.5496 56.7451C27.6857 56.1379 27.7539 55.5732 27.7539 55.0511C27.7539 54.1646 27.1596 53.7215 25.971 53.7215C25.2281 53.7215 24.5039 53.8429 23.7981 54.0858C23.1048 54.3165 22.591 54.6382 22.2567 55.0511C22.69 55.0876 23.0739 55.2272 23.4081 55.4701C23.7424 55.7007 23.9096 55.9983 23.9096 56.3626C23.9096 56.4718 23.891 56.5932 23.8539 56.7268L23.4081 58.2933C23.0862 59.3739 22.8386 60.2422 22.6653 60.8979C22.4919 61.5536 22.3991 62.094 22.3867 62.519C22.1762 62.6647 21.9162 62.7376 21.6067 62.7376C21.26 62.7376 20.9939 62.6647 20.8081 62.519C20.6348 62.3854 20.5481 62.2032 20.5481 61.9726C20.5481 61.244 20.6657 60.3818 20.901 59.3861C21.1362 58.3904 21.4581 57.3582 21.8667 56.2897C21.7428 56.2046 21.5324 56.1015 21.2353 55.9801C20.9257 55.8465 20.6967 55.7251 20.5481 55.6158C20.4119 55.4943 20.3439 55.3304 20.3439 55.124C20.3439 54.5897 20.6039 54.0979 21.1239 53.6486C21.6562 53.1872 22.3619 52.8229 23.241 52.5558C24.12 52.2886 25.0548 52.1551 26.0453 52.1551C26.7014 52.1551 27.3143 52.2765 27.8839 52.5193C28.4657 52.75 28.93 53.1022 29.2767 53.5758C29.6357 54.0371 29.8153 54.6079 29.8153 55.2879C29.8153 55.9193 29.7348 56.6054 29.5739 57.3461C29.4253 58.0747 29.2148 58.9611 28.9424 60.0054C28.6948 60.9282 28.5214 61.6629 28.4224 62.2093ZM30.5742 49.4593C30.6485 49.4958 30.698 49.5746 30.7228 49.6961C30.7599 49.8054 30.7785 49.9086 30.7785 50.0058C30.7785 50.2243 30.6733 50.3822 30.4628 50.4793C30.2523 50.5764 30.0171 50.6251 29.7571 50.6251C29.5466 50.6251 29.3361 50.5582 29.1256 50.4247C28.9151 50.279 28.6304 50.0482 28.2714 49.7326C27.7761 49.2954 27.3366 48.9615 26.9528 48.7308C26.5566 48.5 26.1108 48.3847 25.6156 48.3847C25.2194 48.3847 24.8171 48.4576 24.4085 48.6033C23.9876 48.7368 23.7771 48.9311 23.7771 49.1861C23.7771 49.3804 23.9256 49.5504 24.2228 49.6961C24.5199 49.8296 24.8666 49.9329 25.2628 50.0058C25.6466 50.0664 25.9685 50.0968 26.2285 50.0968L27.1199 50.0786C27.2808 50.0664 27.4851 50.0604 27.7328 50.0604C28.0051 50.0604 28.1413 50.1333 28.1413 50.279C28.1413 50.4976 28.0299 50.6857 27.8071 50.8436C27.5719 51.0015 27.2994 51.1229 26.9899 51.2079C26.668 51.2929 26.3894 51.3354 26.1542 51.3354C25.4361 51.3354 24.7366 51.2565 24.0556 51.0986C23.3623 50.9407 22.799 50.71 22.3656 50.4065C21.9199 50.1029 21.6971 49.7386 21.6971 49.3136C21.6971 48.8522 21.9261 48.4393 22.3842 48.0751C22.8299 47.7108 23.3747 47.4315 24.0185 47.2372C24.6499 47.0307 25.2133 46.9276 25.7085 46.9276C26.5008 46.9276 27.1756 47.0611 27.7328 47.3283C28.2899 47.5833 28.8347 48.0082 29.3671 48.6033C29.5651 48.8218 29.7756 49.004 29.9985 49.1497C30.2213 49.2954 30.4133 49.3986 30.5742 49.4593ZM36.7956 60.3879C36.3499 60.5336 35.5637 60.9039 34.4371 61.499C33.7437 61.8754 33.1742 62.1668 32.7285 62.3733C32.2828 62.5796 31.9299 62.6829 31.6699 62.6829C30.989 62.6829 30.6485 62.3368 30.6485 61.6447C30.6485 61.5232 30.6856 61.3654 30.7599 61.1711C30.8342 60.9647 30.9023 60.7886 30.9642 60.6429C31.0385 60.4972 31.088 60.3939 31.1128 60.3333C31.509 59.5075 31.8371 58.6758 32.0971 57.8379C32.3694 57.0001 32.549 55.9983 32.6356 54.8326C32.3633 54.6625 32.1404 54.4379 31.9671 54.1586C31.7937 53.8672 31.6637 53.5818 31.5771 53.3026C31.5894 53.0354 31.7628 52.8229 32.0971 52.6651C32.4437 52.495 32.8151 52.4101 33.2113 52.4101C33.7933 52.4101 34.2019 52.5982 34.4371 52.9747C34.6847 53.3511 34.8085 53.9401 34.8085 54.7415C34.8085 55.4214 34.6661 56.32 34.3814 57.4372C34.0966 58.5543 33.7499 59.4954 33.3414 60.2604C33.8614 59.969 34.5176 59.6654 35.3099 59.3497C36.1147 59.034 36.8823 58.8033 37.6128 58.6576C37.9223 57.3097 38.1947 56.2107 38.4299 55.3608C38.6651 54.4986 38.9376 53.7579 39.2471 53.1386C39.5566 52.5193 39.8971 52.2097 40.2685 52.2097C40.9123 52.2097 41.259 52.4768 41.3085 53.0111C41.1971 53.1204 41.0237 53.5758 40.7885 54.3772C40.5656 55.1664 40.349 56.0225 40.1385 56.9454C39.928 57.8682 39.8042 58.4814 39.7671 58.7851C40.0519 58.87 40.2623 59.0461 40.3985 59.3133C40.5471 59.5683 40.6214 59.8718 40.6214 60.224C40.6214 60.5761 40.5408 60.9404 40.3799 61.3168C40.219 61.6932 39.9713 62.009 39.6371 62.264C39.3151 62.519 38.9066 62.6465 38.4114 62.6465C37.9904 62.6465 37.6128 62.4826 37.2785 62.1547C36.9442 61.8268 36.7771 61.3957 36.7771 60.8615C36.7771 60.6671 36.7833 60.5093 36.7956 60.3879ZM48.5292 61.0072C48.455 61.4443 48.2445 61.8146 47.8978 62.1183C47.5635 62.4218 47.0931 62.5736 46.4864 62.5736C46.2883 62.5736 46.0098 62.4886 45.6507 62.3186C45.304 62.1365 45.1307 61.9726 45.1307 61.8268C45.1307 61.6689 45.174 61.3168 45.2607 60.7704C45.3598 60.0175 45.4092 59.5561 45.4092 59.3861C45.4092 58.6089 45.3226 57.8379 45.1492 57.0729C44.976 56.3079 44.7655 55.6764 44.5178 55.1786C44.2703 54.6807 44.0598 54.4379 43.8864 54.4501C43.5026 54.4379 43.1807 54.3043 42.9207 54.0493C42.6731 53.7943 42.5492 53.5454 42.5492 53.3026C42.5492 53.0354 42.6792 52.8229 42.9392 52.6651C43.2117 52.495 43.5335 52.4101 43.905 52.4101C45.1431 52.4101 45.985 52.9929 46.4307 54.1586C46.8888 55.3243 47.1178 56.6843 47.1178 58.2386L47.0993 58.8761C47.3098 57.7833 47.6255 56.7572 48.0464 55.7979C48.4798 54.8265 48.9503 54.025 49.4578 53.3936C49.9655 52.75 50.4421 52.3554 50.8878 52.2097C51.1603 52.2097 51.4821 52.2886 51.8535 52.4465C52.2374 52.6043 52.4292 52.7439 52.4292 52.8654C52.4292 52.9261 52.3798 52.9747 52.2807 53.0111C52.0455 53.084 51.6678 53.5029 51.1478 54.2679C50.6278 55.0329 50.114 56.0165 49.6064 57.2186C49.1112 58.4086 48.7521 59.6715 48.5292 61.0072ZM47.5324 48.2572C47.5324 48.1236 47.4643 48.0568 47.3281 48.0568C47.2167 48.0568 47.0928 48.1054 46.9567 48.2026C46.8081 48.2875 46.7214 48.3361 46.6967 48.3483C46.5233 48.4697 46.4119 48.5304 46.3624 48.5304C46.2386 48.5304 46.121 48.4271 46.0096 48.2208C45.8857 48.0022 45.8239 47.8018 45.8239 47.6197C45.8239 47.4618 45.9353 47.2918 46.1581 47.1097C46.381 46.9276 46.6533 46.7757 46.9753 46.6543C47.2848 46.5328 47.5696 46.4722 47.8296 46.4722C48.3 46.4722 48.6714 46.5451 48.9439 46.6908C49.2039 46.8243 49.3339 47.0975 49.3339 47.5104C49.3339 47.6318 49.3091 47.8201 49.2596 48.0751C49.21 48.3179 49.1419 48.5243 49.0553 48.6943C49.7486 48.3057 50.4914 47.9415 51.2839 47.6015C52.0762 47.2614 52.6891 47.0915 53.1224 47.0915C53.4567 47.0915 53.7353 47.1582 53.9581 47.2918C54.181 47.4132 54.2924 47.6197 54.2924 47.9111C54.2924 48.0082 54.2367 48.1054 54.1253 48.2026C54.0262 48.2996 53.921 48.3483 53.8096 48.3483C53.5248 48.3483 52.9676 48.5 52.1381 48.8036C51.3086 49.1072 50.4853 49.4654 49.6681 49.8783C48.851 50.279 48.3 50.6129 48.0153 50.8801C47.8914 51.0015 47.7862 51.0622 47.6996 51.0622C47.5014 51.0622 47.3096 50.9589 47.1239 50.7526C46.9257 50.5461 46.8267 50.3457 46.8267 50.1515C46.8267 49.9936 46.8639 49.8357 46.9381 49.6779C47 49.5079 47.0991 49.2893 47.2353 49.0222C47.26 48.9736 47.3157 48.8643 47.4024 48.6943C47.4891 48.5122 47.5324 48.3665 47.5324 48.2572ZM60.161 55.2879C60.0371 56.0771 59.7462 57.3582 59.2881 59.1311C59.2386 59.3133 59.1271 59.7261 58.9539 60.3697C58.7928 61.0132 58.6753 61.5596 58.601 62.009C58.4524 62.3004 58.2605 62.525 58.0253 62.6829C57.79 62.8407 57.4186 62.9197 56.911 62.9197C56.5148 62.9197 56.3167 62.7315 56.3167 62.3551C56.3167 62.2822 56.3291 62.1729 56.3539 62.0272L56.6881 60.6247C56.8119 60.1147 56.9233 59.6593 57.0224 59.2586C57.1339 58.8457 57.2267 58.4875 57.301 58.184C57.6848 56.6661 57.9386 55.6218 58.0624 55.0511C58.0748 55.0025 58.081 54.9418 58.081 54.869C58.081 54.5289 57.9139 54.2557 57.5796 54.0493C57.2576 53.8308 56.9171 53.7215 56.5581 53.7215C55.8028 53.7215 55.2396 53.9401 54.8681 54.3772C54.5091 54.8021 54.311 55.3668 54.2739 56.0711C53.791 56.0225 53.3886 55.9132 53.0667 55.7433C52.7571 55.5732 52.6024 55.3486 52.6024 55.0693C52.6024 54.2072 52.9553 53.5089 53.661 52.9747C54.3791 52.4283 55.3943 52.1551 56.7067 52.1551C57.5114 52.1551 58.1739 52.3129 58.6939 52.6286C59.2139 52.9322 59.5914 53.3086 59.8267 53.7579C60.0619 54.1951 60.1796 54.62 60.1796 55.0329C60.1796 55.1543 60.1734 55.2393 60.161 55.2879ZM69.6022 55.3608C69.6022 56.2957 69.4227 57.34 69.0637 58.4936C68.7169 59.6471 68.1784 60.6429 67.448 61.4808C66.7298 62.3064 65.8508 62.7193 64.8108 62.7193C64.1794 62.7193 63.678 62.5857 63.3065 62.3186C62.9351 62.0393 62.7494 61.6689 62.7494 61.2076C62.7494 60.8433 62.8794 60.5457 63.1394 60.3151C63.4117 60.0722 63.7398 59.9447 64.1237 59.9326C64.136 60.4426 64.2289 60.7825 64.4023 60.9526C64.5755 61.1104 64.7922 61.1893 65.0522 61.1893C65.3865 61.1893 65.7517 60.8493 66.148 60.1693C66.5565 59.4772 66.9032 58.6697 67.188 57.7468C67.4727 56.8118 67.6151 56.0286 67.6151 55.3972C67.6151 54.9236 67.4851 54.5289 67.2251 54.2133C66.9651 53.8854 66.4451 53.7215 65.6651 53.7215C64.9594 53.7215 64.3712 53.9401 63.9008 54.3772C63.4427 54.8021 63.1889 55.385 63.1394 56.1258C62.6565 56.1258 62.2665 56.0165 61.9694 55.7979C61.6722 55.5671 61.5237 55.3 61.5237 54.9965C61.5237 54.4501 61.7032 53.9643 62.0622 53.5393C62.4337 53.1022 62.9537 52.7621 63.6222 52.5193C64.3032 52.2765 65.0769 52.1551 65.9437 52.1551C67.1446 52.1551 68.0546 52.4586 68.6737 53.0658C69.2927 53.6729 69.6022 54.4379 69.6022 55.3608Z" fill="#745D57"/>
</g>
</g>
<defs>
<filter id="filter0_i" x="26.2693" y="8.14835" width="54.4611" height="29.6494" filterUnits="userSpaceOnUse" color-interpolation-filters="sRGB">
<feFlood flood-opacity="0" result="BackgroundImageFix"/>
<feBlend mode="normal" in="SourceGraphic" in2="BackgroundImageFix" result="shape"/>
<feColorMatrix in="SourceAlpha" type="matrix" values="0 0 0 0 0 0 0 0 0 0 0 0 0 0 0 0 0 0 127 0" result="hardAlpha"/>
<feOffset dx="-3" dy="4"/>
<feComposite in2="hardAlpha" operator="arithmetic" k2="-1" k3="1"/>
<feColorMatrix type="matrix" values="0 0 0 0 0 0 0 0 0 0 0 0 0 0 0 0 0 0 0.25 0"/>
<feBlend mode="normal" in2="shape" result="effect1_innerShadow"/>
</filter>
<filter id="filter1_i" x="26.2693" y="61.8372" width="54.4611" height="29.6494" filterUnits="userSpaceOnUse" color-interpolation-filters="sRGB">
<feFlood flood-opacity="0" result="BackgroundImageFix"/>
<feBlend mode="normal" in="SourceGraphic" in2="BackgroundImageFix" result="shape"/>
<feColorMatrix in="SourceAlpha" type="matrix" values="0 0 0 0 0 0 0 0 0 0 0 0 0 0 0 0 0 0 127 0" result="hardAlpha"/>
<feOffset dx="-3" dy="4"/>
<feComposite in2="hardAlpha" operator="arithmetic" k2="-1" k3="1"/>
<feColorMatrix type="matrix" values="0 0 0 0 0 0 0 0 0 0 0 0 0 0 0 0 0 0 0.25 0"/>
<feBlend mode="normal" in2="shape" result="effect1_innerShadow"/>
</filter>
<filter id="filter2_i" x="7.28981" y="32.5439" width="30.5039" height="34.5472" filterUnits="userSpaceOnUse" color-interpolation-filters="sRGB">
<feFlood flood-opacity="0" result="BackgroundImageFix"/>
<feBlend mode="normal" in="SourceGraphic" in2="BackgroundImageFix" result="shape"/>
<feColorMatrix in="SourceAlpha" type="matrix" values="0 0 0 0 0 0 0 0 0 0 0 0 0 0 0 0 0 0 127 0" result="hardAlpha"/>
<feOffset dx="-3" dy="4"/>
<feComposite in2="hardAlpha" operator="arithmetic" k2="-1" k3="1"/>
<feColorMatrix type="matrix" values="0 0 0 0 0 0 0 0 0 0 0 0 0 0 0 0 0 0 0.25 0"/>
<feBlend mode="normal" in2="shape" result="effect1_innerShadow"/>
</filter>
<filter id="filter3_i" x="69.2062" y="32.5439" width="30.5039" height="34.5472" filterUnits="userSpaceOnUse" color-interpolation-filters="sRGB">
<feFlood flood-opacity="0" result="BackgroundImageFix"/>
<feBlend mode="normal" in="SourceGraphic" in2="BackgroundImageFix" result="shape"/>
<feColorMatrix in="SourceAlpha" type="matrix" values="0 0 0 0 0 0 0 0 0 0 0 0 0 0 0 0 0 0 127 0" result="hardAlpha"/>
<feOffset dx="-3" dy="4"/>
<feComposite in2="hardAlpha" operator="arithmetic" k2="-1" k3="1"/>
<feColorMatrix type="matrix" values="0 0 0 0 0 0 0 0 0 0 0 0 0 0 0 0 0 0 0.25 0"/>
<feBlend mode="normal" in2="shape" result="effect1_innerShadow"/>
</filter>
<filter id="filter4_i" x="43.4404" y="42.361" width="20.1192" height="14.9134" filterUnits="userSpaceOnUse" color-interpolation-filters="sRGB">
<feFlood flood-opacity="0" result="BackgroundImageFix"/>
<feBlend mode="normal" in="SourceGraphic" in2="BackgroundImageFix" result="shape"/>
<feColorMatrix in="SourceAlpha" type="matrix" values="0 0 0 0 0 0 0 0 0 0 0 0 0 0 0 0 0 0 127 0" result="hardAlpha"/>
<feOffset dx="-3" dy="4"/>
<feComposite in2="hardAlpha" operator="arithmetic" k2="-1" k3="1"/>
<feColorMatrix type="matrix" values="0 0 0 0 0 0 0 0 0 0 0 0 0 0 0 0 0 0 0.25 0"/>
<feBlend mode="normal" in2="shape" result="effect1_innerShadow"/>
</filter>
<clipPath id="clip0">
<rect width="104" height="102" fill="white" transform="translate(0.194046)"/>
</clipPath>
</defs>
</svg>
